<svg width="31" height="23" viewBox="0 0 31 23" fill="none" xmlns="http://www.w3.org/2000/svg">
<path d="M30.988 7.92593V20.381C30.988 21.6317 29.9208 22.6455 28.6043 22.6455H2.38369C1.06718 22.6455 0 21.6317 0 20.381V7.92593C0 7.30069 0.533709 6.79365 1.19185 6.79365C1.3568 6.75923 1.52747 6.75923 1.69242 6.79365L15.494 15.8519L29.3194 6.79365C29.4767 6.7624 29.6388 6.7624 29.7961 6.79365C30.4543 6.79365 30.988 7.30069 30.988 7.92593ZM0.595923 2.08339L0.786618 2.26455L15.494 11.3228L30.249 2.26455H30.3921C30.8202 2.0424 31.0576 1.59085 30.988 1.13228C30.988 0.507033 30.4543 0 29.7961 0H1.19185C0.533709 0 0 0.507033 0 1.13228C0.0061976 1.52744 0.233125 1.88977 0.595923 2.08339Z" fill="white"/>
</svg>
