<svg width="87" height="86" viewBox="0 0 87 86" fill="none" xmlns="http://www.w3.org/2000/svg">
<path d="M17.1836 19.0315H27.5363C28.4811 19.0315 29.3872 19.4068 30.0553 20.0749C30.7234 20.743 31.0988 21.6491 31.0988 22.594C31.0988 23.5388 30.7234 24.4449 30.0553 25.113C29.3872 25.7811 28.4811 26.1565 27.5363 26.1565H10.935C9.99017 26.1565 9.08403 25.7811 8.41594 25.113C7.74784 24.4449 7.3725 23.5388 7.3725 22.594V6.00696C7.3725 5.06213 7.74784 4.15599 8.41594 3.48789C9.08403 2.81979 9.99017 2.44446 10.935 2.44446C11.8798 2.44446 12.786 2.81979 13.4541 3.48789C14.1222 4.15599 14.4975 5.06213 14.4975 6.00696V11.6357C20.6109 6.01732 28.2282 2.30081 36.419 0.940078C44.6098 -0.420654 53.0195 0.633291 60.6212 3.97319C68.2229 7.3131 74.6874 12.7944 79.2254 19.7477C83.7633 26.7009 86.1781 34.8252 86.175 43.1282C86.175 54.465 81.672 65.3375 73.6563 73.3545C65.6407 81.3715 54.7689 85.8763 43.4321 85.8782C32.0941 85.8782 21.2205 81.3742 13.2033 73.357C5.18613 65.3398 0.682129 54.4662 0.682129 43.1282H7.80713C7.80713 52.5765 11.5605 61.6379 18.2415 68.3189C24.9224 74.9999 33.9838 78.7532 43.4321 78.7532C52.8805 78.7532 61.9418 74.9999 68.6228 68.3189C75.3038 61.6379 79.0571 52.5765 79.0571 43.1282C79.0576 35.9526 76.8913 28.9441 72.8417 23.0205C68.7921 17.0968 63.0481 12.5341 56.3618 9.92982C49.6755 7.32553 42.3586 6.80106 35.3692 8.42509C28.3799 10.0491 22.0438 13.7459 17.1908 19.0315H17.1836Z" fill="#00BE7A"/>
</svg>
