<svg width="83" height="83" viewBox="0 0 83 83" fill="none" xmlns="http://www.w3.org/2000/svg">
<path d="M32.5937 71.1706C32.5912 68.7761 33.3786 66.4476 34.8339 64.5461C36.2892 62.6446 38.3311 61.2762 40.6431 60.653C42.9551 60.0298 45.4081 60.1866 47.6219 61.0991C49.8357 62.0116 51.6867 63.6288 52.888 65.7002C61.161 62.0506 64.2603 56.3229 64.2603 45.4375V33.5625C64.2603 17.7608 55.3501 6.84375 41.4999 6.84375C27.6497 6.84375 18.7395 17.7648 18.7395 33.5625V47.4167C18.7385 48.2037 18.4253 48.9582 17.8688 49.5147C17.3123 50.0712 16.5578 50.3844 15.7708 50.3854H11.8124C8.92708 50.3823 6.16075 49.2349 4.12013 47.1951C2.07952 45.1552 0.931193 42.3893 0.927002 39.504L0.927002 35.5456C0.930143 32.6592 2.07788 29.8919 4.1185 27.8505C6.15911 25.8092 8.92603 24.6604 11.8124 24.6562H13.7045C16.701 10.521 26.957 0.90625 41.4999 0.90625C56.0428 0.90625 66.2949 10.521 69.2914 24.6562H71.1835C74.0692 24.6604 76.8355 25.8086 78.876 27.8491C80.9165 29.8896 82.0647 32.656 82.0689 35.5417V39.5C82.0657 42.386 80.9179 45.1529 78.8771 47.1937C76.8364 49.2344 74.0695 50.3823 71.1835 50.3854H69.9603C69.8076 55.0737 68.2346 59.605 65.4497 63.3796C62.6647 67.1541 58.7991 69.9939 54.3645 71.5229C54.3178 74.4099 53.1261 77.1601 51.0517 79.1685C48.9772 81.1768 46.1899 82.2789 43.3029 82.2322C40.4159 82.1855 37.6658 80.9938 35.6574 78.9194C33.649 76.8449 32.547 74.0576 32.5937 71.1706ZM38.5312 71.1706C38.5312 72.1492 38.8214 73.1059 39.365 73.9195C39.9087 74.7332 40.6815 75.3674 41.5856 75.7419C42.4897 76.1164 43.4846 76.2144 44.4444 76.0235C45.4042 75.8325 46.2858 75.3613 46.9778 74.6693C47.6698 73.9773 48.141 73.0957 48.3319 72.1359C48.5228 71.1761 48.4249 70.1812 48.0504 69.2771C47.6759 68.373 47.0417 67.6003 46.228 67.0566C45.4143 66.5129 44.4577 66.2227 43.4791 66.2227C42.1671 66.2237 40.9092 66.7454 39.9815 67.6731C39.0539 68.6008 38.5322 69.8587 38.5312 71.1706ZM70.1978 44.4519H71.1835C72.4961 44.4519 73.755 43.9307 74.6836 43.0029C75.6121 42.0751 76.1343 40.8166 76.1353 39.504V35.5456C76.1353 34.233 75.6142 32.9741 74.6864 32.0455C73.7586 31.117 72.5001 30.5948 71.1874 30.5937H70.1978V44.4519ZM6.8645 35.5456V39.504C6.8666 40.8152 7.38869 42.0721 8.31627 42.9989C9.24384 43.9258 10.5012 44.4469 11.8124 44.4479H12.802V30.5937H11.8124C10.4998 30.5948 9.24127 31.117 8.31347 32.0455C7.38567 32.9741 6.8645 34.233 6.8645 35.5456Z" fill="#00BE7A"/>
</svg>
