<svg width="110" height="46" viewBox="0 0 110 46" fill="none" xmlns="http://www.w3.org/2000/svg">
<path d="M26.5725 26.516L26.654 26.574L26.654 26.5741L26.6538 26.5743L26.6534 26.5748L26.6522 26.5766L26.6477 26.5826C26.6458 26.5852 26.6434 26.5884 26.6406 26.5921C26.6379 26.5955 26.6349 26.5995 26.6315 26.6038C26.6174 26.6217 26.5967 26.647 26.5698 26.6773C26.5161 26.7379 26.4371 26.8192 26.335 26.9031C26.1315 27.0704 25.8311 27.2523 25.4528 27.2954L25.4509 27.2956C25.2042 27.3189 24.9954 27.2609 24.8477 27.1957C24.7738 27.163 24.7144 27.1283 24.6723 27.1001C24.6552 27.0887 24.6407 27.0783 24.629 27.0693H24.6282L24.6217 27.0636C24.6215 27.0635 24.6214 27.0634 24.6212 27.0633C24.6149 27.0582 24.6091 27.0534 24.6043 27.049C24.6037 27.0485 24.6004 27.0456 24.5961 27.0411C24.3964 26.864 24.1214 26.442 23.9409 25.8434C23.7581 25.2371 23.6696 24.4416 23.8569 23.5173L23.8673 23.466L23.9154 23.4453C24.3338 23.265 25.0247 23.0289 25.6075 22.8389C25.8997 22.7436 26.1659 22.6595 26.3591 22.5992C26.4557 22.5691 26.534 22.5449 26.5882 22.5282L26.6508 22.5091L26.6671 22.5041L26.6712 22.5028L26.6723 22.5025L26.6726 22.5024L26.6726 22.5024L26.7017 22.5981L26.6727 22.5024L26.7762 22.471L26.7994 22.5767L27.1549 24.1956L27.1823 24.3205L27.0547 24.317L27.0546 24.317L27.0546 24.317L27.0545 24.317L27.0532 24.317L27.0471 24.3169C27.0414 24.3169 27.0327 24.317 27.0213 24.3174C26.9986 24.3181 26.9657 24.32 26.926 24.3245C26.846 24.3336 26.7415 24.353 26.6386 24.3938C26.5357 24.4345 26.439 24.4948 26.3685 24.5831C26.2994 24.6698 26.2506 24.7898 26.2523 24.9607C26.2559 25.2601 26.3678 25.4266 26.4993 25.5165C26.636 25.6099 26.8086 25.6305 26.9439 25.608L27.0922 25.5833L27.0576 25.7296C27.0085 25.9375 26.9064 26.1493 26.8194 26.3059C26.7754 26.3849 26.7344 26.4515 26.7044 26.4983C26.6893 26.5218 26.677 26.5403 26.6683 26.5532L26.6582 26.568L26.6554 26.572L26.6546 26.5731L26.6544 26.5735L26.6543 26.5736L26.6543 26.5736L26.5725 26.516ZM26.5725 26.516L26.6541 26.5739L26.6543 26.5736L26.5725 26.516ZM5.61691 35.2779L5.68936 35.1889L5.59126 35.1293C5.22204 34.9051 4.45269 34.2166 4.03853 33.4053C3.83214 33.0011 3.71864 32.5755 3.77763 32.1666C3.83601 31.7619 4.06538 31.3593 4.57293 31C5.18549 30.6135 5.70916 30.6097 6.07748 30.6977C6.26321 30.7421 6.41115 30.8103 6.51226 30.8671C6.56275 30.8955 6.60136 30.9209 6.62693 30.9389C6.63971 30.9479 6.6492 30.9551 6.65527 30.9597L6.66179 30.9648L6.66304 30.9658L6.66308 30.9659L6.66312 30.9659L6.66317 30.966L6.66323 30.966L6.7238 31.0165L6.7871 30.9691L6.7271 30.8891L6.78717 30.969L6.78736 30.9689L6.78812 30.9683L6.79113 30.966L6.803 30.9571L6.8494 30.9222L7.02666 30.7885C7.18003 30.6725 7.40065 30.5052 7.66976 30.2996C8.20796 29.8885 8.94023 29.3244 9.71638 28.7124C11.2623 27.4936 12.9921 26.0773 13.7021 25.3047C14.225 24.864 14.691 24.5063 15.0264 24.2586C15.1947 24.1345 15.33 24.038 15.4232 23.9727C15.4698 23.94 15.5058 23.9151 15.5301 23.8985L15.5577 23.8797L15.5646 23.875L15.5663 23.8738L15.5667 23.8736L15.5668 23.8735L15.5668 23.8735L15.6046 23.8482L15.6103 23.8031L15.5111 23.7905L15.6103 23.8031L15.6103 23.8028L15.6105 23.8014L15.6113 23.7959L15.6144 23.7732C15.6172 23.7531 15.6216 23.7227 15.6278 23.6827C15.6401 23.6027 15.6596 23.4837 15.688 23.3289C15.7448 23.0193 15.8373 22.5666 15.9796 21.9953C16.2644 20.8527 16.7487 19.2364 17.5469 17.344C19.0565 13.7647 21.6884 9.19898 26.2147 4.98324C25.0924 6.57575 24.1657 8.49855 23.4909 10.1134C23.0895 11.074 22.7764 11.9276 22.5637 12.5412C22.4573 12.848 22.376 13.0949 22.3212 13.2652C22.2938 13.3503 22.2731 13.4163 22.2592 13.4611L22.2434 13.5121L22.2394 13.5252L22.2384 13.5285L22.2382 13.5294L22.2381 13.5296L22.3338 13.5585L22.2381 13.5297L22.4184 13.6115L22.4186 13.6116L22.4186 13.6116L22.4186 13.6115L22.4189 13.6111L22.4202 13.6091L22.4256 13.6006C22.4305 13.593 22.4379 13.5816 22.4477 13.5669C22.4673 13.5374 22.4965 13.4944 22.5346 13.441C22.6108 13.334 22.7224 13.1855 22.8631 13.02C23.1455 12.6879 23.5415 12.2923 24.0021 12.0245C24.4619 11.7572 24.9765 11.6224 25.5064 11.7918C26.0382 11.9617 26.6088 12.4453 27.1626 13.4675L27.2478 13.6248L27.3372 13.4698C27.8572 12.5674 29.6931 10.2777 31.9192 7.92989C33.9451 5.79312 36.2811 3.62221 38.2254 2.41265C37.5101 3.24094 36.4017 4.69008 35.3083 6.38423C33.9501 8.48848 32.607 10.9829 32.0704 13.1462L32.0076 13.3993L32.2235 13.2531C32.2609 13.2278 32.2999 13.2012 32.3405 13.1735C32.6822 12.9406 33.1347 12.6322 33.6233 12.4009C34.1725 12.141 34.746 11.9891 35.2451 12.1333C35.7352 12.2748 36.186 12.7124 36.4695 13.7095C36.7537 14.7086 36.8639 16.2525 36.6806 18.5696L36.6711 18.6902L36.7914 18.6768C37.0047 18.6531 37.3054 18.5856 37.655 18.5049C37.6886 18.4971 37.7228 18.4892 37.7574 18.4812C38.0852 18.4053 38.4554 18.3197 38.8472 18.2442C39.7157 18.0769 40.6776 17.9626 41.4965 18.1135C42.3095 18.2634 42.9722 18.6718 43.2722 19.5496C43.5763 20.4391 43.5149 21.8282 42.8174 23.9534L42.7894 24.0388L42.8713 24.0757C43.8898 24.5355 45.538 25.3662 46.9334 26.0829C47.6308 26.4411 48.2643 26.7705 48.7235 27.0104C48.9531 27.1303 49.1391 27.2278 49.2677 27.2954L49.3526 27.34C49.3245 27.3681 49.2887 27.4022 49.2445 27.4416C49.1055 27.565 48.8828 27.7398 48.552 27.94C47.8905 28.3403 46.7958 28.8427 45.0723 29.2388L44.8792 29.2832L45.0296 29.4122C45.9415 30.1945 46.8644 31.1139 47.5599 31.8385C47.9075 32.2007 48.1979 32.5138 48.4015 32.7364C48.4933 32.8368 48.5675 32.9188 48.6212 32.9785L48.48 33.0269C48.298 33.0891 48.0354 33.1785 47.7135 33.2875C47.0696 33.5053 46.1883 33.801 45.2383 34.1125C43.3364 34.7361 41.1658 35.4208 40.0726 35.672L39.7287 35.7511L40.0629 35.8642C41.014 36.1862 41.9376 36.5391 42.6238 36.8115C42.9668 36.9477 43.2502 37.0638 43.4479 37.1457C43.5052 37.1695 43.5552 37.1904 43.5974 37.2081C43.5927 37.2115 43.5879 37.215 43.5829 37.2186C43.482 37.2917 43.3316 37.3968 43.1346 37.5241C42.7405 37.7787 42.1602 38.1219 41.4173 38.4749C39.9314 39.1808 37.7964 39.9251 35.2001 40.0784C33.2112 40.1959 31.1675 39.8759 29.0988 39.5519C28.4641 39.4525 27.827 39.3527 27.1884 39.2651C24.4778 38.8931 21.7505 38.7431 19.1229 39.8071C18.6267 39.9697 18.1251 40.1393 17.6213 40.3096C15.4413 41.0466 13.2202 41.7974 11.2191 42.0579C9.98874 42.2181 8.85074 42.1912 7.86343 41.866C6.92292 41.5562 6.11435 40.9742 5.49022 40.014C5.5261 40.0122 5.56672 40.0104 5.61253 40.0083C5.68529 40.005 5.77117 40.001 5.87206 39.996C6.23042 39.9782 6.74924 39.9477 7.38412 39.8875C8.63775 39.7687 10.3449 39.534 12.1643 39.0516C12.5779 39.6522 13.1063 40.0682 13.5845 40.3214C13.8315 40.4522 14.0668 40.5405 14.268 40.5881C14.4652 40.6347 14.643 40.6455 14.7676 40.6064C14.9759 40.5412 15.1899 40.3013 15.3184 39.8736C15.4448 39.4525 15.4947 38.8327 15.3717 37.9606C15.5492 37.8693 15.792 37.7487 15.974 37.6584C16.0677 37.6119 16.1452 37.5735 16.1894 37.5511C19.5371 36.0604 21.8964 34.0779 23.4151 32.4595C24.1746 31.6502 24.724 30.9317 25.0819 30.4108C25.2609 30.1504 25.3921 29.9391 25.478 29.7902C25.5209 29.7158 25.5528 29.6563 25.5739 29.6135C25.5741 29.613 25.5743 29.6126 25.5746 29.6121C25.5883 29.6143 25.6037 29.6168 25.6206 29.6198C25.6967 29.6333 25.8018 29.6559 25.9169 29.6919C26.1509 29.7651 26.4101 29.8889 26.5633 30.0901L26.7446 30.3281L26.7429 30.029C26.7398 29.4923 26.5698 29.0922 26.3007 28.8194C26.0327 28.5477 25.6749 28.4108 25.3105 28.3836C24.5912 28.3301 23.7995 28.7057 23.5916 29.3905L23.533 29.5837L23.7222 29.5133C23.8621 29.4612 24.0938 29.4465 24.3033 29.4474C24.3816 29.4478 24.4544 29.4502 24.5143 29.4532C24.5036 29.471 24.4918 29.4904 24.4789 29.5115C24.4008 29.639 24.2822 29.825 24.1211 30.0572C23.7989 30.5217 23.3067 31.1713 22.6279 31.9092C21.2704 33.385 19.1673 35.2133 16.1866 36.6218L16.1866 36.6217L16.183 36.6236C13.6747 37.934 10.9292 38.6386 8.80546 39.0155C7.74407 39.2038 6.83912 39.31 6.19834 39.3692C5.87798 39.3988 5.62371 39.4166 5.44901 39.4271C5.36167 39.4323 5.29422 39.4357 5.24836 39.4377L5.19599 39.4399C5.19029 39.4401 5.18602 39.4403 5.1831 39.4404C5.17968 39.4405 5.17811 39.4406 5.17827 39.4406L5.17826 39.4404L5.17326 39.4408C3.94636 39.5282 2.95505 39.535 2.27095 39.5201C1.9289 39.5126 1.66369 39.4997 1.48426 39.4887C1.46675 39.4876 1.45005 39.4866 1.43419 39.4855C1.53128 39.3928 1.66787 39.262 1.83307 39.1032C2.17508 38.7744 2.63976 38.3254 3.13038 37.8446C4.10939 36.885 5.19838 35.7922 5.61691 35.2779ZM12.917 34.2191L12.9812 34.2247L13.0128 34.1686C13.3219 33.621 13.4553 32.9002 13.3811 32.2998C13.3076 31.7055 13.0195 31.1798 12.4412 31.1223L12.4412 31.122L12.4332 31.1218C11.9916 31.1135 11.6814 31.2751 11.476 31.5397C11.2749 31.7988 11.182 32.1466 11.1472 32.5007C11.0777 33.2095 11.237 33.9934 11.307 34.2947L11.3311 34.3986L11.4332 34.3678C11.7898 34.2605 12.1609 34.223 12.4446 34.2127C12.586 34.2075 12.7048 34.2092 12.788 34.2121C12.8295 34.2136 12.8622 34.2153 12.8842 34.2167L12.9092 34.2184L12.9153 34.2189L12.9167 34.219L12.917 34.2191Z" fill="#EF9035" stroke="black" stroke-width="0.2"/>
<path d="M30.6588 18.0111C30.5739 17.9996 30.5075 17.9918 30.4609 17.9867C30.46 17.9787 30.459 17.97 30.4581 17.9607C30.451 17.8927 30.4427 17.7918 30.4383 17.662C30.4293 17.4025 30.4354 17.0277 30.4964 16.57C30.6177 15.6586 30.9562 14.4183 31.8257 13.1031C33.4076 12.0111 34.5748 11.5686 35.4146 11.5622C35.8332 11.5591 36.1692 11.6642 36.4373 11.8505C36.7062 12.0372 36.9133 12.31 37.0658 12.652C37.3721 13.3388 37.4521 14.291 37.3762 15.3288C37.3004 16.3641 37.0705 17.4729 36.7676 18.4652L36.712 18.6474L36.8936 18.5897C39.2756 17.8327 40.9251 17.603 42.0365 17.725C42.591 17.7859 43.007 17.9338 43.3132 18.1432C43.6182 18.3519 43.8191 18.6249 43.9393 18.9456C44.1816 19.5922 44.0973 20.4376 43.8495 21.3331C43.6145 22.1818 43.2375 23.059 42.8772 23.8252C39.6659 21.1639 36.5599 19.7037 34.2479 18.9083C33.0801 18.5064 32.1147 18.2742 31.4406 18.1423C31.1035 18.0764 30.8392 18.0355 30.6588 18.0111Z" fill="#12A8CE" stroke="black" stroke-width="0.2"/>
<path d="M27.5623 3.52385C23.188 9.85053 22.1272 15.4865 21.9646 17.1376C18.5951 17.9288 16.7327 20.2686 15.8629 22.3244C17.26 15.5565 20.1293 10.8848 22.723 7.86271C24.1144 6.24149 25.4267 5.09466 26.3904 4.35357C26.8723 3.98303 27.2669 3.71397 27.5406 3.53779C27.5479 3.53308 27.5552 3.52843 27.5623 3.52385Z" fill="#005A7F" stroke="black" stroke-width="0.2"/>
<path d="M25.3029 17.9957L25.3034 17.9936L25.2069 17.9675L25.3035 17.9935L25.3035 17.9933L25.3039 17.992L25.3053 17.9868L25.3113 17.9656C25.3166 17.9467 25.3248 17.9183 25.336 17.8809C25.3584 17.8062 25.3928 17.6954 25.4404 17.552C25.5355 17.2654 25.6837 16.8488 25.8951 16.3304C26.3181 15.2935 26.9941 13.85 28.0058 12.2253C29.9647 9.07952 33.1811 5.25631 38.2546 2.39114C37.5628 3.23032 36.2478 5.03427 34.8499 7.45694C33.1073 10.477 31.2302 14.468 30.2673 18.7671C30.235 18.8393 30.14 18.9274 29.967 19.0186C29.7939 19.1097 29.5613 19.1943 29.2891 19.2658C28.7451 19.4086 28.0565 19.4955 27.3999 19.4835C26.7402 19.4715 26.1281 19.3598 25.7265 19.1183C25.5275 18.9987 25.3851 18.8501 25.31 18.6704C25.2352 18.4914 25.2224 18.2701 25.3029 17.9957Z" fill="#005A7F" stroke="black" stroke-width="0.2"/>
<path d="M20.5761 18.7067L20.5761 18.7066C20.5347 18.6033 20.5172 18.4499 20.5279 18.2488C20.5385 18.0497 20.5762 17.8125 20.638 17.5473C20.7615 17.0168 20.979 16.3828 21.2565 15.7317C21.8129 14.4266 22.6027 13.072 23.3427 12.3548C23.7179 11.9913 24.0733 11.6903 24.4153 11.4852C24.7571 11.2801 25.0784 11.175 25.3875 11.1925C25.9924 11.2266 26.6139 11.7381 27.2748 13.1081C27.018 13.519 26.5961 14.3513 26.1836 15.2573C25.7622 16.183 25.3465 17.1945 25.1235 17.925C24.4487 18.26 23.3963 18.6783 22.4614 18.897C21.9841 19.0086 21.5451 19.0664 21.2051 19.0384C20.8612 19.0101 20.6529 18.8984 20.5761 18.7067Z" fill="#12A8CE" stroke="black" stroke-width="0.2"/>
<path fill-rule="evenodd" clip-rule="evenodd" d="M60.2071 24.9999C62.4038 24.9999 63.5022 23.9811 63.5023 21.9436V20.2676C63.5023 19.0386 62.9805 18.2794 61.9367 17.9902C62.859 17.7141 63.3201 16.9615 63.3201 15.7324V14.0564C63.3201 12.019 62.2217 11.0002 60.0249 11.0001H55V25H60.2071V24.9999ZM57.4944 13.3662H59.7519C60.4679 13.3662 60.8259 13.662 60.826 14.2535V15.7325C60.826 16.4556 60.4346 16.85 59.6519 16.9156H57.4944V13.3662ZM57.4944 19.0844H59.6608C60.559 19.1502 61.0081 19.5446 61.0082 20.2675V21.7464C61.0082 22.3379 60.5894 22.6337 59.7519 22.6337H57.4944V19.0844ZM65.4859 21.9436C65.4859 23.9812 66.5844 25 68.7815 24.9999H70.6019C72.7986 24.9999 73.897 23.9811 73.8971 21.9436V11H71.403V21.7464C71.403 22.3379 70.9842 22.6337 70.1467 22.6337H69.2363C68.3988 22.6337 67.9801 22.3379 67.9803 21.7464V11H65.4859V21.9436ZM75.881 11V24.9999L78.3751 24.9014V19.676H80.0956L82.0982 24.9999H84.8019L82.4167 19.6366C83.6671 19.183 84.2921 18.1775 84.2919 16.6198V14.0563C84.2919 12.0189 83.1935 11.0001 80.9967 11H75.881ZM78.3751 13.3662H80.5415C81.3792 13.3662 81.798 13.662 81.7978 14.2535V16.6197C81.7978 17.2112 81.379 17.507 80.5415 17.507H78.3751V13.3662ZM91.3915 24.9999C93.5885 24.9999 94.6871 23.9811 94.6871 21.9436V19.9717C94.6871 17.9343 93.4369 16.9156 90.9366 16.9155C89.7955 16.9155 89.225 16.6197 89.2251 16.0281V14.2535C89.2251 13.662 89.6439 13.3662 90.4814 13.3662H94.596L94.696 11H90.0263C87.8292 11 86.7308 12.0188 86.731 14.0563V16.0281C86.731 18.0657 87.9811 19.0845 90.4814 19.0844C91.6222 19.0844 92.1926 19.3802 92.1926 19.9717V21.7464C92.1926 22.3379 91.774 22.6337 90.9366 22.6337H86.831L86.731 24.9999H91.3915ZM96.7707 11L96.6706 13.3662H99.7655V24.9999H102.26V13.3662H105L104.9 11H96.7707Z" fill="#EF9035"/>
<path fill-rule="evenodd" clip-rule="evenodd" d="M55 29V43L57.4808 42.9015V37.676H60.0881C62.2729 37.5381 63.3653 36.5193 63.3654 34.6198V32.0565C63.3654 30.0189 62.273 29.0001 60.0881 29H55ZM57.4808 31.3663H59.6354C60.4683 31.3663 60.8848 31.662 60.8849 32.2535V34.4225C60.8849 35.0143 60.4684 35.3101 59.6354 35.31H57.4808V31.3663ZM65.3385 29V43L67.819 42.9015V37.676H69.5301L71.5218 43H74.2108L71.8386 37.6365C73.0821 37.1833 73.7038 36.1777 73.7036 34.6198V32.0565C73.7036 30.0189 72.6112 29.0001 70.4263 29H65.3385ZM67.819 31.3663H69.9736C70.8068 31.3663 71.2232 31.662 71.223 32.2535V34.6198C71.223 35.2112 70.8066 35.507 69.9736 35.507H67.819V31.3663ZM79.8594 40.6337C79.0264 40.6337 78.6099 40.338 78.6099 39.7465V32.2535C78.6099 31.662 79.0264 31.3663 79.8594 31.3663H80.7645C81.5976 31.3663 82.0141 31.662 82.0139 32.2535V39.7465C82.0139 40.338 81.5974 40.6337 80.7645 40.6337H79.8594ZM79.4067 29C77.2216 29 76.1292 30.0188 76.1294 32.0565V39.9438C76.1294 41.9814 77.2218 43.0001 79.4067 43H81.2172C83.4022 43 84.4947 41.9813 84.4945 39.9438V32.0565C84.4945 30.0189 83.402 29.0001 81.2172 29H79.4067ZM89.1474 43L91.4286 37.7451L93.7102 43H96.3808L93.3028 36L96.3808 29H93.7102L91.4286 34.2549L89.1474 29H86.4675L89.5909 36L86.4675 43H89.1474ZM100.907 37.5974V43H103.478V37.5974L107 29.1086L104.41 29L102.229 34.9944L100.038 29L97.4577 29.1086L100.907 37.5974Z" fill="#EF9035"/>
</svg>
