<svg width="64" height="63" viewBox="0 0 64 63" fill="none" xmlns="http://www.w3.org/2000/svg">
<path d="M31.8481 0C36.8411 0 41.5921 1.14353 45.8551 3.19868C46.5251 3.50055 47.1951 3.86141 47.8631 4.22226L44.9401 6.81019L40.5581 2.29705L33.0081 8.91432L28.5601 4.15129L14.6752 16.4882L23.5651 26.1762L20.0951 29.1849L28.8651 38.873L25.3951 41.8797L37.9401 55.66L45.3651 48.9198L51.823 56.1428C50.543 57.1054 49.1431 58.07 47.6231 58.9117C42.8226 61.5973 37.4123 63.0051 31.9111 63C14.3102 63 0.000200681 48.8628 0.000200681 31.473C-0.0617991 14.2011 14.2502 0 31.8481 0ZM26.0001 29.5458L33.6121 22.8056L40.4341 30.3275L32.8201 37.0667L26.0001 29.5458ZM31.4201 42.5434L38.9701 35.7442L45.8521 43.2651L38.2391 50.0054L31.4201 42.5434ZM20.5841 16.7291L28.1841 9.98888L35.0041 17.5108L27.3911 24.25L20.5841 16.7291ZM34.5271 13.1076L40.2001 8.06367L45.3161 13.6614L39.6521 18.7752L34.5271 13.1076ZM44.6271 36.275L50.3 31.2301L55.416 36.8848L49.752 41.9427L44.6271 36.275ZM49.62 47.6503L55.284 42.5944L60.396 48.1921L54.734 53.306L49.62 47.6503ZM51.935 21.6541L55.71 18.2835L59.12 22.0159L55.346 25.3845L51.935 21.6541ZM47.0631 10.5217L50.838 7.09307L54.25 10.8835L50.472 14.2521L47.0631 10.5217ZM56.745 32.7875L60.52 29.4189L64 33.1573L60.165 36.5259L56.745 32.7875ZM39.7451 24.4229L45.4091 19.368L50.523 24.9637L44.8611 30.0196L39.7451 24.4229Z" fill="#106DB3"/>
</svg>
