<svg width="90" height="90" viewBox="0 0 90 90" fill="none" xmlns="http://www.w3.org/2000/svg">
<path fill-rule="evenodd" clip-rule="evenodd" d="M9.375 45C9.375 35.5517 13.1283 26.4903 19.8093 19.8093C26.4903 13.1283 35.5517 9.375 45 9.375C54.4483 9.375 63.5097 13.1283 70.1907 19.8093C76.8717 26.4903 80.625 35.5517 80.625 45C80.625 54.4483 76.8717 63.5097 70.1907 70.1907C63.5097 76.8717 54.4483 80.625 45 80.625C35.5517 80.625 26.4903 76.8717 19.8093 70.1907C13.1283 63.5097 9.375 54.4483 9.375 45ZM45 1.875C21.1838 1.875 1.875 21.1838 1.875 45C1.875 68.8162 21.1838 88.125 45 88.125C68.8162 88.125 88.125 68.8162 88.125 45C88.125 21.1838 68.8162 1.875 45 1.875ZM41.25 26.25C41.25 25.2554 41.6451 24.3016 42.3483 23.5983C43.0516 22.8951 44.0054 22.5 45 22.5C45.9946 22.5 46.9484 22.8951 47.6516 23.5983C48.3549 24.3016 48.75 25.2554 48.75 26.25V45H63.75C64.7446 45 65.6984 45.3951 66.4016 46.0983C67.1049 46.8016 67.5 47.7554 67.5 48.75C67.5 49.7446 67.1049 50.6984 66.4016 51.4016C65.6984 52.1049 64.7446 52.5 63.75 52.5H45C44.0054 52.5 43.0516 52.1049 42.3483 51.4016C41.6451 50.6984 41.25 49.7446 41.25 48.75V26.25Z" fill="#00BE7A"/>
</svg>
