<svg width="76" height="84" viewBox="0 0 76 84" fill="none" xmlns="http://www.w3.org/2000/svg">
<path d="M70.6072 0H21.5353C18.7271 0 16.4423 2.28478 16.4423 5.09301V16.4903C7.13338 19.1543 0.300049 27.7411 0.300049 37.8942C0.300049 48.0472 7.13321 56.634 16.4423 59.2981V78.9073C16.4423 81.7156 18.7271 84.0003 21.5353 84.0003H61.6366C62.1123 84.0003 62.5685 83.8114 62.905 83.475L75.1748 71.2051C75.5111 70.8687 75.7001 70.4124 75.7001 69.9367V5.09301C75.7001 2.28478 73.4155 0 70.6072 0ZM21.5353 3.58759H70.6072C71.4372 3.58759 72.1125 4.26291 72.1125 5.09301V10.5067H20.0299V5.09301C20.0299 4.26291 20.7052 3.58759 21.5353 3.58759ZM3.88764 37.894C3.88764 27.5988 12.2633 19.2232 22.5585 19.2232C32.8537 19.2232 41.2293 27.5988 41.2293 37.894C41.2293 48.1892 32.8537 56.565 22.5585 56.565C12.2633 56.565 3.88764 48.1892 3.88764 37.894ZM20.0299 78.9072V60.0081C20.8602 60.1024 21.7036 60.1526 22.5587 60.1526C29.2444 60.1526 35.2505 57.1891 39.3341 52.5073H50.3251C51.3157 52.5073 52.1189 51.7042 52.1189 50.7135C52.1189 49.7228 51.3157 48.9197 50.3251 48.9197H41.8889C43.4492 46.1948 44.4488 43.1104 44.7323 39.824H50.3249C51.3156 39.824 52.1187 39.0209 52.1187 38.0302C52.1187 37.0395 51.3156 36.2364 50.3249 36.2364H44.7551C44.5125 32.9573 43.5558 29.874 42.0411 27.1408H50.3247C51.3154 27.1408 52.1185 26.3377 52.1185 25.347C52.1185 24.3563 51.3154 23.5532 50.3247 23.5532H39.5664C35.4803 18.7146 29.3725 15.6354 22.5581 15.6354C21.7031 15.6354 20.8597 15.6856 20.0294 15.7799V14.0943H72.112V68.1425H64.9353C62.1269 68.1425 59.8424 70.4273 59.8424 73.2354V80.4124H21.5353C20.7052 80.4124 20.0299 79.7373 20.0299 78.9072ZM63.4305 77.8755V73.2355C63.4305 72.4054 64.1058 71.7303 64.9358 71.7303H69.5757L63.4305 77.8755Z" fill="#00BE7A"/>
<path d="M57.3729 27.1408H63.33C64.3207 27.1408 65.1238 26.3377 65.1238 25.347C65.1238 24.3563 64.3207 23.5532 63.33 23.5532H57.3729C56.3822 23.5532 55.5791 24.3563 55.5791 25.347C55.5791 26.3377 56.3822 27.1408 57.3729 27.1408Z" fill="#00BE7A"/>
<path d="M57.3729 39.8239H63.33C64.3207 39.8239 65.1238 39.0208 65.1238 38.0301C65.1238 37.0394 64.3207 36.2363 63.33 36.2363H57.3729C56.3822 36.2363 55.5791 37.0394 55.5791 38.0301C55.5791 39.0208 56.3822 39.8239 57.3729 39.8239Z" fill="#00BE7A"/>
<path d="M57.3729 52.5073H63.33C64.3207 52.5073 65.1238 51.7042 65.1238 50.7135C65.1238 49.7228 64.3207 48.9197 63.33 48.9197H57.3729C56.3822 48.9197 55.5791 49.7228 55.5791 50.7135C55.5791 51.7042 56.3822 52.5073 57.3729 52.5073Z" fill="#00BE7A"/>
<path d="M63.3299 65.1905C64.3206 65.1905 65.1237 64.3874 65.1237 63.3967C65.1237 62.406 64.3206 61.6029 63.3299 61.6029H46.5494C45.5587 61.6029 44.7556 62.406 44.7556 63.3967C44.7556 64.3874 45.5587 65.1905 46.5494 65.1905H63.3299Z" fill="#00BE7A"/>
<path d="M36.4855 28.845L34.2971 26.6566C33.7077 26.0674 32.9243 25.7428 32.0907 25.7428C31.2572 25.7428 30.4738 26.0674 29.8844 26.6566L18.4058 38.1352L15.2328 34.9622C14.6436 34.3732 13.86 34.0486 13.0266 34.0486C12.1933 34.0486 11.4097 34.3732 10.8204 34.9624L8.63149 37.1512C7.41513 38.3677 7.41513 40.3472 8.63166 41.5637L16.1993 49.1312C16.7886 49.7207 17.5723 50.0453 18.4058 50.0453H18.406C19.2393 50.0453 20.0229 49.7207 20.612 49.1315L36.4857 33.2578C37.7021 32.0412 37.7021 30.0616 36.4855 28.845ZM18.4056 46.264L11.4988 39.3574L13.0265 37.8297L17.1372 41.9404C17.8378 42.641 18.9735 42.641 19.6741 41.9404L32.0907 29.5238L33.6184 31.0514L18.4056 46.264Z" fill="#00BE7A"/>
</svg>
