<svg width="87" height="88" viewBox="0 0 87 88" fill="none" xmlns="http://www.w3.org/2000/svg">
<path fill-rule="evenodd" clip-rule="evenodd" d="M79.7177 59.281L74.8673 67.5685L63.857 63.8932L62.7336 64.913C59.5294 67.8274 55.849 69.9394 51.7958 71.1817L50.3256 71.6373L48.0583 82.8236H38.2955L36.0283 71.632L34.5581 71.1765C30.505 69.9342 26.8245 67.8222 23.6203 64.9078L22.497 63.888L11.4866 67.5634L6.63625 59.2758L15.3327 51.7389L14.9911 50.2274C14.5149 48.1309 14.2767 46.0344 14.2767 44C14.2767 41.9657 14.5148 39.8692 14.9911 37.7728L15.3327 36.2612L6.63625 28.7243L11.4866 20.4368L22.497 24.1069L23.6203 23.0871C26.8245 20.1728 30.505 18.0608 34.5581 16.8132L36.0283 16.3629L38.2955 5.17651H48.0583L50.3256 16.3681L51.7958 16.8184C55.849 18.0659 59.5294 20.1728 62.7336 23.0923L63.857 24.1121L74.8673 20.4368L79.7176 28.7243L71.0212 36.2612L71.3628 37.7728C71.839 39.8692 72.0772 41.9657 72.0772 44C72.0772 46.0344 71.8391 48.1309 71.3628 50.2274L71.0212 51.7389L79.7177 59.281ZM77.2537 44C77.2537 42.0848 77.0777 40.128 76.7205 38.1662L86.3539 29.8217L77.2122 14.1991L65.0579 18.2523C61.9882 15.7055 58.489 13.697 54.7981 12.3667L52.2927 0H34.0612L31.5558 12.3614C27.8235 13.697 24.3864 15.6744 21.2908 18.2471L9.14169 14.1991L0 29.8217L9.62821 38.1662C9.27621 40.128 9.10021 42.0848 9.10021 44C9.10021 45.9154 9.27621 47.872 9.62821 49.8288L4.58333e-05 58.1784L9.14169 73.801L21.296 69.7427C24.3657 72.2947 27.865 74.2979 31.5558 75.6335L34.0612 88H52.2928L54.7981 75.6386C58.5252 74.2979 61.9676 72.3257 65.0579 69.7478L77.2123 73.8062L86.3539 58.1836L76.7205 49.8339C77.0777 47.872 77.2537 45.9154 77.2537 44ZM43.1764 25.8819C33.1859 25.8819 25.0588 34.009 25.0588 43.9995C25.0588 53.9901 33.1858 62.1172 43.1764 62.1172C53.167 62.1172 61.2941 53.9901 61.2941 43.9995C61.2941 34.009 53.167 25.8819 43.1764 25.8819ZM43.1764 56.9407C36.0432 56.9407 30.2352 51.1327 30.2352 43.9995C30.2352 36.8664 36.0432 31.0584 43.1764 31.0584C50.3096 31.0584 56.1176 36.8664 56.1176 43.9995C56.1176 51.1327 50.3096 56.9407 43.1765 56.9407" fill="#00BE7A"/>
</svg>
