<svg width="70" height="58" viewBox="0 0 70 58" fill="none" xmlns="http://www.w3.org/2000/svg">
<g clip-path="url(#clip0_125_20)">
<path fill-rule="evenodd" clip-rule="evenodd" d="M0.0397949 53.7637C0.0397949 53.7637 5.09432 49.0014 6.28766 47.548C5.18442 46.8841 1.77368 43.5415 4.81524 41.4115C6.65378 40.2598 7.99886 41.3719 7.99886 41.3719C7.99886 41.3719 15.9288 35.4779 17.9477 33.2954C19.4655 32.0269 20.6538 31.2367 20.6538 31.2367C20.6538 31.2367 22.629 15.8749 37.1291 3.2463C33.0678 8.1183 30.4832 16.6279 30.4832 16.6279C30.4832 16.6279 34.3381 10.5242 37.5668 16.4299C39.0835 13.8214 48.189 3.31099 54.1217 0.118652C52.3484 1.89167 46.1849 9.94302 44.6504 16.0736C46.662 14.7238 52.3544 10.5357 51.2962 23.7937C53.6744 23.5318 64.162 19.3416 60.1308 31.5139C63.0728 32.83 69.6418 36.2647 69.6418 36.2647C69.6418 36.2647 68.2669 38.0179 63.2746 39.1548C65.9126 41.3976 68.6072 44.4204 68.6072 44.4204C68.6072 44.4204 59.237 47.6189 56.0716 48.3398C58.8183 49.2615 61.4042 50.3589 61.4042 50.3589C61.4042 50.3589 56.5544 54.1941 49.0279 54.6347C41.5014 55.0753 33.4072 51.2264 25.9068 54.2388C18.3105 56.7057 9.70127 60.3484 5.9693 54.2784C5.93245 54.2234 10.5975 54.2693 15.894 52.8618C17.0722 54.6244 18.9717 55.2864 19.5395 55.1098C20.0067 54.9645 20.683 53.9589 20.2956 51.3883C20.6739 51.1927 21.3749 50.8522 21.5691 50.7548C31.1774 46.5159 35.1085 39.4789 35.0597 39.3924C35.0571 39.3924 36.1949 39.4988 36.6913 40.1446C36.6742 37.2044 32.98 37.4881 32.4332 39.2736C32.8908 39.1047 33.8658 39.1944 33.8658 39.1944C33.8658 39.1944 30.3173 45.6453 21.6885 49.6859C14.4252 53.4466 5.80359 53.7233 5.77032 53.7241C2.22535 53.9747 0.0397949 53.7637 0.0397949 53.7637ZM33.8432 35.7755C33.3211 35.3224 32.2891 33.4651 32.8189 30.875C34.0105 30.3661 36.7761 29.5344 36.7761 29.5344L37.2882 31.8459C37.2882 31.8459 35.9732 31.8102 35.9847 32.9092C35.9961 33.8437 36.7015 34.0466 37.1486 33.9725C37.0165 34.5283 36.5899 35.1283 36.5899 35.1283C36.5899 35.1283 35.9768 35.9841 34.9604 36.0992C34.31 36.1603 33.8571 35.7966 33.8432 35.7755ZM16.9289 45.9842C16.9289 45.9842 15.797 45.886 14.7371 46.2019C14.5368 45.3464 13.8388 41.8026 16.2166 41.847C17.675 41.9907 17.7885 44.475 16.9289 45.9842Z" fill="#EF9035"/>
<path fill-rule="evenodd" clip-rule="evenodd" d="M42.0636 23.0813C42.0636 23.0813 50.8071 23.7903 60.1307 31.5141C62.3036 26.9777 65.1676 19.344 51.4155 23.6752C53.1713 17.9755 53.2433 9.57517 44.0534 15.8758C41.4974 19.6902 42.0636 23.0813 42.0636 23.0813Z" fill="#12A8CE"/>
<path fill-rule="evenodd" clip-rule="evenodd" d="M38.5274 1.82642C38.5274 1.82642 24.2515 9.54632 20.614 31.2764C21.3355 28.0818 24.0059 23.2213 30.0853 21.8539C30.286 19.6137 31.8131 11.1981 38.5274 1.82642Z" fill="#005A7F"/>
<path fill-rule="evenodd" clip-rule="evenodd" d="M34.622 22.923C34.622 22.923 38.5624 8.44702 54.082 0.158447C52.8463 1.35131 44.8148 11.8601 42.0502 24.1082C41.5496 25.3481 33.6361 26.2554 34.622 22.923Z" fill="#005A7F"/>
<path fill-rule="evenodd" clip-rule="evenodd" d="M27.8169 24.0314C27.2487 22.6257 29.6628 16.8942 31.8362 14.8068C34.0097 12.7194 35.831 11.9659 37.7657 15.9945C37.0492 17.0938 35.2491 20.8874 34.6219 22.9624C32.6675 23.9358 28.3851 25.4371 27.8169 24.0314Z" fill="#12A8CE"/>
</g>
<defs>
<clipPath id="clip0_125_20">
<rect width="70" height="58" fill="white"/>
</clipPath>
</defs>
</svg>
