<svg width="135" height="81" viewBox="0 0 135 81" fill="none" xmlns="http://www.w3.org/2000/svg">
<path d="M135 40.4995C135 62.7851 117 80.9992 94.4999 80.9992C72.2144 80.9992 54.0002 62.7851 54.0002 40.4995C54.0002 18.214 72.0001 -0.00012207 94.2856 -0.00012207C117 -0.00012207 135 18.214 135 40.4995Z" fill="#FFB600"/>
<path d="M94.4999 -0.00012207C116.785 -0.00012207 135 18.214 135 40.4995C135 62.7851 117 80.9992 94.4999 80.9992C72.2144 80.9992 54.0002 62.7851 54.0002 40.4995" fill="#F7981D"/>
<path d="M94.4988 -0.00012207C116.784 -0.00012207 134.998 18.214 134.998 40.4995C134.998 62.7851 116.999 80.9992 94.4988 80.9992" fill="#FF8500"/>
<path d="M40.0714 -0.00012207C18.0001 0.214162 0.000244141 18.214 0.000244141 40.4995C0.000244141 62.7851 18.0001 80.9992 40.4999 80.9992C50.9998 80.9992 60.4283 76.9278 67.714 70.4993C69.214 69.2136 70.4997 67.7136 71.7854 66.2136H63.4283C62.3569 64.9279 61.2855 63.4279 60.4283 62.1422H74.7854C75.6425 60.8565 76.4996 59.3565 77.1425 57.8566H58.0712C57.4284 56.5708 56.7855 55.0709 56.3569 53.5709H78.6425C79.9282 49.4995 80.7853 45.2138 80.7853 40.7138C80.7853 37.7139 80.3568 34.9282 79.9282 32.1425H55.0712C55.2855 30.6425 55.7141 29.3568 56.1427 27.8568H78.4282C77.9996 26.3568 77.3568 24.8568 76.7139 23.5711H57.8569C58.4998 22.0711 59.3569 20.7854 60.2141 19.2854H74.5711C73.7139 17.7854 72.6425 16.2855 71.3568 14.9998H63.4283C64.714 13.4998 65.9997 12.2141 67.4997 10.9284C60.4283 4.28556 50.7856 0.428445 40.2856 0.428445C40.2856 -0.000122485 40.2856 -0.00012207 40.0714 -0.00012207Z" fill="#FF5050"/>
<path d="M0.000244141 40.4997C0.000244141 62.7852 18.0001 80.9994 40.4999 80.9994C50.9998 80.9994 60.4283 76.928 67.714 70.4995C69.214 69.2138 70.4997 67.7138 71.7854 66.2138H63.4283C62.3569 64.9281 61.2855 63.4281 60.4283 62.1424H74.7854C75.6425 60.8567 76.4996 59.3567 77.1425 57.8567H58.0712C57.4284 56.571 56.7855 55.071 56.3569 53.571H78.6425C79.9282 49.4996 80.7853 45.2139 80.7853 40.714C80.7853 37.714 80.3568 34.9283 79.9282 32.1426H55.0712C55.2855 30.6426 55.7141 29.3569 56.1427 27.8569H78.4282C77.9996 26.357 77.3568 24.857 76.7139 23.5713H57.8569C58.4998 22.0713 59.3569 20.7856 60.2141 19.2856H74.5711C73.7139 17.7856 72.6425 16.2856 71.3568 14.9999H63.4283C64.714 13.4999 65.9997 12.2142 67.4997 10.9285C60.4283 4.2857 50.7856 0.428589 40.2856 0.428589H40.0714" fill="#E52836"/>
<path d="M40.4996 81.0004C50.9995 81.0004 60.428 76.929 67.7137 70.5004C69.2137 69.2147 70.4994 67.7147 71.7851 66.2148H63.428C62.3566 64.9291 61.2852 63.4291 60.428 62.1434H74.7851C75.6422 60.8577 76.4993 59.3577 77.1422 57.8577H58.0709C57.428 56.572 56.7852 55.072 56.3566 53.572H78.6422C79.9279 49.5006 80.785 45.2149 80.785 40.715C80.785 37.715 80.3564 34.9293 79.9279 32.1436H55.0709C55.2852 30.6436 55.7138 29.3579 56.1423 27.8579H78.4279C77.9993 26.3579 77.3565 24.8579 76.7136 23.5722H57.8566C58.4995 22.0723 59.3566 20.7865 60.2137 19.2866H74.5708C73.7136 17.7866 72.6422 16.2866 71.3565 15.0009H63.428C64.7137 13.5009 65.9994 12.2152 67.4994 10.9295C60.428 4.28668 50.7852 0.429565 40.2853 0.429565H40.071" fill="#CB2026"/>
<path d="M54.8567 50.7845L55.4995 47.1417C55.2853 47.1417 54.8567 47.356 54.4281 47.356C52.9281 47.356 52.7139 46.4989 52.9281 46.0703L54.2138 38.5704H56.571L57.2138 34.499H55.071L55.4995 31.9276H51.2139C51.2139 31.9276 48.6425 46.0703 48.6425 47.7846C48.6425 50.356 50.1424 51.4274 52.071 51.4274C53.3567 51.4274 54.4281 50.9988 54.8567 50.7845Z" fill="white"/>
<path d="M56.3578 43.928C56.3578 49.928 60.4292 51.428 63.8577 51.428C67.072 51.428 68.3577 50.7851 68.3577 50.7851L69.2148 46.7137C69.2148 46.7137 66.8577 47.7851 64.7149 47.7851C60.0006 47.7851 60.8578 44.3566 60.8578 44.3566H69.6434C69.6434 44.3566 70.2862 41.5709 70.2862 40.4995C70.2862 37.7138 68.7863 34.2852 64.072 34.2852C59.572 33.8567 56.3578 38.5709 56.3578 43.928ZM63.8577 37.7138C66.2149 37.7138 65.7863 40.4995 65.7863 40.7138H61.072C61.072 40.4995 61.5006 37.7138 63.8577 37.7138Z" fill="white"/>
<path d="M91.071 50.7849L91.9282 46.0707C91.9282 46.0707 89.7853 47.1421 88.2853 47.1421C85.2854 47.1421 83.9997 44.785 83.9997 42.2136C83.9997 37.0708 86.5711 34.2851 89.571 34.2851C91.7139 34.2851 93.4281 35.5708 93.4281 35.5708L94.071 31.0708C94.071 31.0708 91.4996 29.9994 89.1425 29.9994C84.2139 29.9994 79.2854 34.2851 79.2854 42.4279C79.2854 47.785 81.8568 51.4278 86.9996 51.4278C88.7139 51.4278 91.071 50.7849 91.071 50.7849Z" fill="white"/>
<path d="M31.2857 33.8563C28.2858 33.8563 26.1429 34.7134 26.1429 34.7134L25.5001 38.3562C25.5001 38.3562 27.4286 37.4991 30.2143 37.4991C31.7143 37.4991 33 37.7134 33 38.9991C33 39.8562 32.7857 40.0705 32.7857 40.0705C32.7857 40.0705 31.5 40.0705 30.8572 40.0705C27.2143 40.0705 23.1429 41.5705 23.1429 46.499C23.1429 50.3561 25.7144 51.2133 27.2143 51.2133C30.2143 51.2133 31.5 49.2847 31.7143 49.2847L31.5 50.999H35.3571L37.0714 39.2134C37.0714 34.0705 32.7857 33.8563 31.2857 33.8563ZM32.1429 43.499C32.1429 44.1419 31.7143 47.5704 29.1429 47.5704C27.8572 47.5704 27.4286 46.499 27.4286 45.8562C27.4286 44.7847 28.0715 43.2848 31.2857 43.2848C31.9286 43.499 32.1429 43.499 32.1429 43.499Z" fill="white"/>
<path d="M41.1428 51.2137C42.2142 51.2137 47.5713 51.428 47.5713 45.6423C47.5713 40.2852 42.4285 41.3566 42.4285 39.2138C42.4285 38.1424 43.2856 37.7138 44.7856 37.7138C45.4284 37.7138 47.7856 37.9281 47.7856 37.9281L48.4284 34.071C48.4284 34.071 46.9284 33.6424 44.357 33.6424C41.1428 33.6424 37.9285 34.9281 37.9285 39.2138C37.9285 44.1423 43.2856 43.7137 43.2856 45.6423C43.2856 46.928 41.7856 47.1423 40.7142 47.1423C38.7856 47.1423 36.8571 46.4994 36.8571 46.4994L36.2142 50.3565C36.4285 50.7851 37.4999 51.2137 41.1428 51.2137Z" fill="white"/>
<path d="M126.64 30.4291L125.783 36.2147C125.783 36.2147 124.069 34.0719 121.712 34.0719C117.855 34.0719 114.426 38.7862 114.426 44.3575C114.426 47.7861 116.14 51.4289 119.783 51.4289C122.355 51.4289 123.855 49.7146 123.855 49.7146L123.64 51.2146H127.926L131.14 30.6434L126.64 30.4291ZM124.712 41.7861C124.712 44.1433 123.64 47.1432 121.283 47.1432C119.783 47.1432 118.926 45.8575 118.926 43.7147C118.926 40.2861 120.426 38.1433 122.355 38.1433C123.855 38.1433 124.712 39.2147 124.712 41.7861Z" fill="white"/>
<path d="M7.92967 51.0003L10.5011 35.5718L10.9296 51.0003H13.9296L19.501 35.5718L17.1439 51.0003H21.6438L25.0724 30.429H18.001L13.7153 43.0718L13.5011 30.429H7.28682L3.85828 51.0003H7.92967Z" fill="white"/>
<path d="M74.3571 50.9992C75.6428 43.9278 75.8571 38.1421 78.857 39.2136C79.2856 36.4279 79.9285 35.3565 80.357 34.285C80.357 34.285 80.1427 34.285 79.4999 34.285C77.5713 34.285 76.0713 36.8564 76.0713 36.8564L76.4999 34.4993H72.4285L69.6428 51.2135H74.3571V50.9992Z" fill="white"/>
<path d="M100.929 33.8563C97.9288 33.8563 95.786 34.7134 95.786 34.7134L95.1431 38.3562C95.1431 38.3562 97.0717 37.4991 99.8574 37.4991C101.357 37.4991 102.643 37.7134 102.643 38.9991C102.643 39.8562 102.429 40.0705 102.429 40.0705C102.429 40.0705 101.143 40.0705 100.5 40.0705C96.8574 40.0705 92.786 41.5705 92.786 46.499C92.786 50.3561 95.3574 51.2133 96.8574 51.2133C99.8574 51.2133 101.143 49.2847 101.357 49.2847L101.143 50.999H105L106.714 39.2134C106.929 34.0705 102.429 33.8563 100.929 33.8563ZM102 43.499C102 44.1419 101.572 47.5704 99.0003 47.5704C97.7145 47.5704 97.286 46.499 97.286 45.8562C97.286 44.7847 97.9288 43.2848 101.143 43.2848C101.786 43.499 101.786 43.499 102 43.499Z" fill="white"/>
<path d="M110.356 50.9992C111.642 43.9278 111.856 38.1421 114.856 39.2136C115.285 36.4279 115.927 35.3565 116.356 34.285C116.356 34.285 116.142 34.285 115.499 34.285C113.57 34.285 112.07 36.8564 112.07 36.8564L112.499 34.4993H108.428L105.642 51.2135H110.356V50.9992Z" fill="white"/>
<path d="M48.2137 47.7846C48.2137 50.356 49.7137 51.4274 51.6423 51.4274C53.1423 51.4274 54.428 50.9988 54.8565 50.7845L55.4994 47.1417C55.2851 47.1417 54.8565 47.356 54.428 47.356C52.928 47.356 52.7137 46.4989 52.928 46.0703L54.2137 38.5704H56.5708L57.2137 34.499H55.0708L55.4994 31.9276" fill="#DCE5E5"/>
<path d="M58.4999 43.9285C58.4999 49.9285 60.4284 51.4284 63.857 51.4284C67.0712 51.4284 68.3569 50.7856 68.3569 50.7856L69.2141 46.7142C69.2141 46.7142 66.857 47.7856 64.7141 47.7856C59.9999 47.7856 60.857 44.3571 60.857 44.3571H69.6426C69.6426 44.3571 70.2855 41.5714 70.2855 40.5C70.2855 37.7143 68.7855 34.2857 64.0713 34.2857C59.5713 33.8572 58.4999 38.5714 58.4999 43.9285ZM63.857 37.7143C66.2141 37.7143 66.6427 40.5 66.6427 40.7142H61.0713C61.0713 40.5 61.4999 37.7143 63.857 37.7143Z" fill="#DCE5E5"/>
<path d="M91.0708 50.7859L91.9279 46.0717C91.9279 46.0717 89.7851 47.1431 88.2851 47.1431C85.2851 47.1431 83.9994 44.786 83.9994 42.2146C83.9994 37.0717 86.5708 34.286 89.5708 34.286C91.7136 34.286 93.4279 35.5718 93.4279 35.5718L94.0707 31.0718C94.0707 31.0718 91.4993 30.0004 89.1422 30.0004C84.2137 30.0004 81.428 34.286 81.428 42.4288C81.428 47.7859 81.8565 51.4288 86.9994 51.4288C88.7136 51.4288 91.0708 50.7859 91.0708 50.7859Z" fill="#DCE5E5"/>
<path d="M25.5001 38.5716C25.5001 38.5716 27.4286 37.7145 30.2143 37.7145C31.7143 37.7145 33 37.9288 33 39.2145C33 40.0716 32.7857 40.2859 32.7857 40.2859C32.7857 40.2859 31.5 40.2859 30.8572 40.2859C27.2143 40.2859 23.1429 41.7859 23.1429 46.7144C23.1429 50.5715 25.7144 51.4287 27.2143 51.4287C30.2143 51.4287 31.5 49.5001 31.7143 49.5001L31.5 51.2144H35.3571L37.0714 39.4288C37.0714 34.5002 32.7857 34.2859 31.0715 34.2859M34.2857 43.5002C34.2857 44.143 31.7143 47.5716 29.1429 47.5716C27.8572 47.5716 27.4286 46.5001 27.4286 45.8573C27.4286 44.7859 28.0715 43.2859 31.2857 43.2859C31.9286 43.5002 34.2857 43.5002 34.2857 43.5002Z" fill="#DCE5E5"/>
<path d="M36.4286 50.7856C36.4286 50.7856 37.7143 51.2142 41.3571 51.2142C42.4285 51.2142 47.7856 51.4285 47.7856 45.6428C47.7856 40.2857 42.6428 41.3571 42.6428 39.2143C42.6428 38.1428 43.5 37.7143 44.9999 37.7143C45.6428 37.7143 47.9999 37.9286 47.9999 37.9286L48.6428 34.0715C48.6428 34.0715 47.1428 33.6429 44.5714 33.6429C41.3571 33.6429 40.2857 34.9286 40.2857 39.2143C40.2857 44.1428 43.5 43.7142 43.5 45.6428C43.5 46.9285 42 47.1428 40.9286 47.1428" fill="#DCE5E5"/>
<path d="M125.786 36.2138C125.786 36.2138 124.071 34.071 121.714 34.071C117.857 34.071 116.571 38.7852 116.571 44.3566C116.571 47.7852 116.143 51.428 119.786 51.428C122.357 51.428 123.857 49.7137 123.857 49.7137L123.643 51.2137H127.929L131.143 30.6425M125.571 41.7852C125.571 44.1423 123.643 47.1423 121.286 47.1423C119.786 47.1423 118.929 45.8566 118.929 43.7138C118.929 40.2852 120.429 38.1424 122.357 38.1424C123.857 38.1424 125.571 39.2138 125.571 41.7852Z" fill="#DCE5E5"/>
<path d="M7.92967 51.0008L10.5011 35.5723L10.9296 51.0008H13.9296L19.501 35.5723L17.1439 51.0008H21.6438L25.0724 30.4295H19.7153L13.7153 43.0723L13.5011 30.4295H11.1439L3.85828 51.0008H7.92967Z" fill="#DCE5E5"/>
<path d="M69.8563 51.0001H74.3563C75.642 43.9287 75.8563 38.1431 78.8563 39.2145C79.2848 36.4288 79.9277 35.3574 80.3562 34.2859C80.3562 34.2859 80.142 34.2859 79.4991 34.2859C77.5705 34.2859 76.0706 36.8574 76.0706 36.8574L76.4991 34.5002" fill="#DCE5E5"/>
<path d="M95.1431 38.5711C95.1431 38.5711 97.0717 37.714 99.8574 37.714C101.357 37.714 102.643 37.9283 102.643 39.214C102.643 40.0711 102.429 40.2854 102.429 40.2854C102.429 40.2854 101.143 40.2854 100.5 40.2854C96.8574 40.2854 92.786 41.7854 92.786 46.7139C92.786 50.571 95.3574 51.4282 96.8574 51.4282C99.8574 51.4282 101.143 49.4996 101.357 49.4996L101.143 51.2139H105L106.714 39.4283C106.714 34.4997 102.429 34.2855 100.715 34.2855M103.929 43.4997C103.929 44.1425 101.357 47.5711 98.786 47.5711C97.5003 47.5711 97.0717 46.4996 97.0717 45.8568C97.0717 44.7854 97.7145 43.2854 100.929 43.2854C101.786 43.4997 103.929 43.4997 103.929 43.4997Z" fill="#DCE5E5"/>
<path d="M105.855 51.0002H110.355C111.64 43.9288 111.855 38.1431 114.855 39.2145C115.283 36.4288 115.926 35.3574 116.355 34.286C116.355 34.286 116.14 34.286 115.498 34.286C113.569 34.286 112.069 36.8574 112.069 36.8574L112.498 34.5003" fill="#DCE5E5"/>
</svg>
