<svg width="130" height="82" viewBox="0 0 130 82" fill="none" xmlns="http://www.w3.org/2000/svg">
<path d="M129.087 0H0V82H129.087V0Z" fill="white"/>
<path d="M126.935 68.6758H2.1499V79.8633H126.935V68.6758Z" fill="#FCB315"/>
<path d="M126.935 2.15112H2.15015V13.3386H126.935V2.15112Z" fill="#4350E9"/>
<path d="M63.466 25.665L56.8885 56.4158H48.933L55.511 25.665H63.466ZM96.9353 45.5211L101.123 33.9732L103.533 45.5211H96.9353ZM105.816 56.4158H113.172L106.745 25.665H99.9593C98.4294 25.665 97.1409 26.5519 96.5702 27.9193L84.6326 56.4158H92.988L94.6464 51.823H104.851L105.816 56.4158ZM85.0474 46.3763C85.0821 38.2612 73.8288 37.8111 73.9035 34.1854C73.928 33.0833 74.9786 31.9096 77.2771 31.6096C78.4162 31.4626 81.5597 31.3443 85.1233 32.9859L86.517 26.4623C84.6022 25.7702 82.1393 25.1033 79.0753 25.1033C71.2106 25.1033 65.6778 29.2807 65.6336 35.2677C65.5834 39.6949 69.5863 42.163 72.5953 43.6374C75.6976 45.1446 76.7374 46.1115 76.7225 47.458C76.701 49.521 74.2477 50.4342 71.9648 50.4688C67.9625 50.531 65.6431 49.3871 63.7941 48.5254L62.3502 55.2666C64.2118 56.1188 67.6428 56.8604 71.1945 56.8987C79.5552 56.8987 85.0229 52.7697 85.0474 46.3763ZM52.0986 25.665L39.2084 56.4158H30.7999L24.4561 31.8744C24.0718 30.3654 23.7365 29.8108 22.567 29.1731C20.654 28.1338 17.4956 27.1621 14.719 26.5573L14.9066 25.665H28.444C30.1682 25.665 31.7196 26.8125 32.114 28.7984L35.4649 46.5938L43.7408 25.665H52.0986Z" fill="#4350E9"/>
</svg>
